# xmcd CD database file
#
# Track frame offsets:
#	150
#	18132
#	31455
#	44362
#	59460
#	73007
#	84392
#	106387
#	122770
#	139730
#	150307
#	167632
#	186677
#	202580
#	225635
#
# Disc length: 3325 seconds
#
# Revision: 0
# Processed by: cddbd v1.5.2PL0 Copyright (c) Steve Scherf et al.
# Submitted via: CDex 1.51
#
DISCID=c20cfb0f
DTITLE=Ann Burton - Skylark
DYEAR=1977
DGENRE=Jazz
TTITLE0=Skylark
TTITLE1=The Days Of Wine And Roses
TTITLE2=What Is There To Stay?
TTITLE3=Some Other Spring
TTITLE4=The End Of A Love Affair
TTITLE5=Dream A Little Dream Of Me
TTITLE6=The Very Thought Of You
TTITLE7=Baubles, Bangles, And Beads
TTITLE8=Thursday's Child
TTITLE9=It's A Pity To Say Good-night
TTITLE10=Rainy Days And Mondays
TTITLE11=Ain't Misbehavin
TTITLE12=Exactly Like You
TTITLE13=You'd Be So Nice To Come Home To
TTITLE14=He's Funny That Way
EXTD=YEAR: 1977
EXTT0=
EXTT1=
EXTT2=
EXTT3=
EXTT4=
EXTT5=
EXTT6=
EXTT7=
EXTT8=
EXTT9=
EXTT10=
EXTT11=
EXTT12=
EXTT13=
EXTT14=
PLAYORDER=
